<svg xmlns="http://www.w3.org/2000/svg" width="1200" height="630" viewBox="0 0 1200 630" role="img" aria-label="Freelance Graphic Designer Rate Calculator — free online calculator from EveryCentCalc">
  <defs>
    <linearGradient id="bg" x1="0" y1="0" x2="1" y2="1">
      <stop offset="0%" stop-color="#c23b7d"/>
      <stop offset="100%" stop-color="#722d5c"/>
    </linearGradient>
    <linearGradient id="brand" x1="0" y1="0" x2="1" y2="0">
      <stop offset="0%" stop-color="#059669"/>
      <stop offset="100%" stop-color="#10b981"/>
    </linearGradient>
    <radialGradient id="glow" cx="0.82" cy="0.2" r="0.6">
      <stop offset="0%" stop-color="#ffffff" stop-opacity="0.12"/>
      <stop offset="100%" stop-color="#ffffff" stop-opacity="0"/>
    </radialGradient>
  </defs>
  <rect width="1200" height="630" fill="url(#bg)"/>
  <rect width="1200" height="630" fill="url(#glow)"/>

  <g opacity="0.5">
    <circle cx="1180" cy="620" r="220" fill="#ffffff" opacity="0.05"/>
    <circle cx="560" cy="-60" r="180" fill="#ffffff" opacity="0.05"/>
  </g>

  <g font-family="'Segoe UI', 'Helvetica Neue', Arial, sans-serif">
    <rect x="48" y="44" width="32" height="32" rx="9" fill="url(#brand)"/>
    <text x="64" y="67" text-anchor="middle" font-size="21" font-weight="800" fill="#ffffff">$</text>
    <text x="94" y="67" font-size="22" font-weight="700" fill="#ffffff" opacity="0.95">EveryCentCalc</text>
  </g>

  <g font-family="'Segoe UI', 'Helvetica Neue', Arial, sans-serif">
    <rect x="928" y="42" width="224" height="38" rx="19" fill="#ffffff" opacity="0.14"/>
    <text x="1040" y="67" text-anchor="middle" font-size="15" font-weight="700" fill="#ffffff">Side Hustle</text>
  </g>

  <g transform="translate(64,160)" font-family="'Segoe UI', 'Helvetica Neue', Arial, sans-serif">
    <rect width="430" height="400" rx="36" fill="#ffffff" opacity="0.94"/>
    <rect x="18" y="18" width="394" height="364" rx="24" fill="none" stroke="#ef69ab" stroke-width="3" stroke-dasharray="10 10" opacity="0.55"/>
    <path d="M 120 150 a 90 90 0 1 1 90 90 l -70 -40 a 45 45 0 1 0 -20 -50 Z" fill="#EC4899"></path><circle cx="150" cy="170" r="14" fill="#aa346e"></circle><circle cx="200" cy="160" r="14" fill="#ef69ab"></circle><circle cx="160" cy="130" r="12" fill="#ffffff"></circle><circle cx="215" cy="145" r="10" fill="#ffffff"></circle><path d="M 245 238.5 l 9.8 -29.4 l 54.6 -54.6 l 23.8 23.8 l -54.6 54.6 Z" fill="#aa346e"></path><path d="M 245 238.5 l 19.6 19.6 l -29.4 9.8 Z" fill="#77244d"></path><line x1="294" y1="165" x2="308" y2="152.4" stroke="#77244d" stroke-width="7" stroke-linecap="round"></line><rect x="120" y="310" width="110" height="24" rx="12" fill="#ef69ab"></rect><text x="175" y="327" font-family="'Inter', 'Segoe UI', system-ui, -apple-system, sans-serif" font-size="13" fill="#1E293B" text-anchor="middle" font-weight="700">design</text><rect x="260" y="310" width="100" height="24" rx="12" fill="#EC4899"></rect><text x="310" y="327" font-family="'Inter', 'Segoe UI', system-ui, -apple-system, sans-serif" font-size="13" fill="#ffffff" text-anchor="middle" font-weight="700">brand rate</text>
  </g>

  <g font-family="'Segoe UI', 'Helvetica Neue', Arial, sans-serif">
    <text x="570" y="210" font-family="'Inter', 'Segoe UI', system-ui, -apple-system, sans-serif" font-size="32" fill="#ffffff" font-weight="800" letter-spacing="-0.5">Freelance Graphic Designer Rate</text>
    <text x="570" y="247" font-family="'Inter', 'Segoe UI', system-ui, -apple-system, sans-serif" font-size="32" fill="#ffffff" font-weight="800" letter-spacing="-0.5">Calculator</text>
    <text x="570" y="310" font-family="'Inter', 'Segoe UI', system-ui, -apple-system, sans-serif" font-size="17" fill="rgba(255,255,255,0.85)" font-weight="500">Design pricing for projects</text>
    <line x1="570" y1="334" x2="1130" y2="334" stroke="#ffffff" stroke-width="3" stroke-linecap="round" opacity="0.35"/>
    <rect x="540" y="410" width="192" height="64" rx="16" fill="rgba(255,255,255,0.14)"></rect><text x="636" y="440" font-family="'Inter', 'Segoe UI', system-ui, -apple-system, sans-serif" font-size="22" fill="#ffffff" text-anchor="middle" font-weight="800">$300–800</text><text x="636" y="460" font-family="'Inter', 'Segoe UI', system-ui, -apple-system, sans-serif" font-size="12.5" fill="rgba(255,255,255,0.75)" text-anchor="middle">logo</text><rect x="744" y="410" width="192" height="64" rx="16" fill="rgba(255,255,255,0.14)"></rect><text x="840" y="440" font-family="'Inter', 'Segoe UI', system-ui, -apple-system, sans-serif" font-size="22" fill="#ffffff" text-anchor="middle" font-weight="800">$50–150</text><text x="840" y="460" font-family="'Inter', 'Segoe UI', system-ui, -apple-system, sans-serif" font-size="12.5" fill="rgba(255,255,255,0.75)" text-anchor="middle">hourly</text><rect x="948" y="410" width="192" height="64" rx="16" fill="rgba(255,255,255,0.14)"></rect><text x="1044" y="440" font-family="'Inter', 'Segoe UI', system-ui, -apple-system, sans-serif" font-size="22" fill="#ffffff" text-anchor="middle" font-weight="800">2–4×</text><text x="1044" y="460" font-family="'Inter', 'Segoe UI', system-ui, -apple-system, sans-serif" font-size="12.5" fill="rgba(255,255,255,0.75)" text-anchor="middle">multiplier</text>
  </g>

  <g font-family="'Segoe UI', 'Helvetica Neue', Arial, sans-serif">
    <rect x="540" y="502" width="170" height="42" rx="21" fill="#ffffff" opacity="0.16"/>
    <text x="625" y="529" text-anchor="middle" font-size="15" font-weight="700" fill="#ffffff" letter-spacing="0.5">FREE TOOL · NO SIGNUP</text>
  </g>

  <text x="600" y="614" text-anchor="middle" font-family="'Segoe UI', 'Helvetica Neue', Arial, sans-serif" font-size="15" fill="#ffffff" opacity="0.55">EveryCentCalc.com — free online financial calculators</text>
</svg>