<svg xmlns="http://www.w3.org/2000/svg" width="1200" height="630" viewBox="0 0 1200 630" role="img" aria-label="House Affordability Calculator — free online calculator from EveryCentCalc">
  <defs>
    <linearGradient id="bg" x1="0" y1="0" x2="1" y2="1">
      <stop offset="0%" stop-color="#1e51c1"/>
      <stop offset="100%" stop-color="#193981"/>
    </linearGradient>
    <linearGradient id="brand" x1="0" y1="0" x2="1" y2="0">
      <stop offset="0%" stop-color="#059669"/>
      <stop offset="100%" stop-color="#10b981"/>
    </linearGradient>
    <radialGradient id="glow" cx="0.82" cy="0.2" r="0.6">
      <stop offset="0%" stop-color="#ffffff" stop-opacity="0.12"/>
      <stop offset="100%" stop-color="#ffffff" stop-opacity="0"/>
    </radialGradient>
  </defs>
  <rect width="1200" height="630" fill="url(#bg)"/>
  <rect width="1200" height="630" fill="url(#glow)"/>

  <g opacity="0.5">
    <circle cx="1180" cy="620" r="220" fill="#ffffff" opacity="0.05"/>
    <circle cx="560" cy="-60" r="180" fill="#ffffff" opacity="0.05"/>
  </g>

  <g font-family="'Segoe UI', 'Helvetica Neue', Arial, sans-serif">
    <rect x="48" y="44" width="32" height="32" rx="9" fill="url(#brand)"/>
    <text x="64" y="67" text-anchor="middle" font-size="21" font-weight="800" fill="#ffffff">$</text>
    <text x="94" y="67" font-size="22" font-weight="700" fill="#ffffff" opacity="0.95">EveryCentCalc</text>
  </g>

  <g font-family="'Segoe UI', 'Helvetica Neue', Arial, sans-serif">
    <rect x="928" y="42" width="224" height="38" rx="19" fill="#ffffff" opacity="0.14"/>
    <text x="1040" y="67" text-anchor="middle" font-size="15" font-weight="700" fill="#ffffff">Real Estate</text>
  </g>

  <g transform="translate(64,160)" font-family="'Segoe UI', 'Helvetica Neue', Arial, sans-serif">
    <rect width="430" height="400" rx="36" fill="#ffffff" opacity="0.94"/>
    <rect x="18" y="18" width="394" height="364" rx="24" fill="none" stroke="#4c7fef" stroke-width="3" stroke-dasharray="10 10" opacity="0.55"/>
    <path d="M 80 215.2 L 160 99.19999999999999 L 240 215.2 Z" fill="#2563EB"></path><rect x="80" y="135.2" width="160" height="124.80000000000001" rx="3" fill="#4c7fef" opacity="1"></rect><rect x="144" y="197.6" width="32" height="62.400000000000006" rx="2" fill="rgba(255,255,255,0.85)"></rect><rect x="99.2" y="170.144" width="32" height="24.960000000000004" rx="1.5" fill="rgba(255,255,255,0.7)"></rect><rect x="188.8" y="170.144" width="32" height="24.960000000000004" rx="1.5" fill="rgba(255,255,255,0.7)"></rect><path d="M 254 120 h 62 a 12 12 0 0 1 12 12 v 0 l -58 62 a 14 14 0 0 1 -20 -20 l 6 -6 v -48 Z" fill="#1b47a9"></path><circle cx="288" cy="130" r="8" fill="#ffffff" opacity="0.8"></circle><text x="316" y="126" font-family="'Inter', 'Segoe UI', system-ui, -apple-system, sans-serif" font-size="22" fill="#ffffff" font-weight="700">$</text><circle cx="320" cy="300" r="40" fill="#4c7fef"></circle><text x="320" y="308" font-family="'Inter', 'Segoe UI', system-ui, -apple-system, sans-serif" font-size="19" fill="#1E293B" text-anchor="middle" font-weight="800">30%</text><text x="120" y="372" font-family="'Inter', 'Segoe UI', system-ui, -apple-system, sans-serif" font-size="15" fill="#1E293B" text-anchor="middle" font-weight="700">how much home?</text>
  </g>

  <g font-family="'Segoe UI', 'Helvetica Neue', Arial, sans-serif">
    <text x="570" y="210" font-family="'Inter', 'Segoe UI', system-ui, -apple-system, sans-serif" font-size="58" fill="#ffffff" font-weight="800" letter-spacing="-0.5">House Affordability</text>
    <text x="570" y="277" font-family="'Inter', 'Segoe UI', system-ui, -apple-system, sans-serif" font-size="58" fill="#ffffff" font-weight="800" letter-spacing="-0.5">Calculator</text>
    <text x="570" y="370" font-family="'Inter', 'Segoe UI', system-ui, -apple-system, sans-serif" font-size="17" fill="rgba(255,255,255,0.85)" font-weight="500">How much house can you afford?</text>
    <line x1="570" y1="394" x2="1130" y2="394" stroke="#ffffff" stroke-width="3" stroke-linecap="round" opacity="0.35"/>
    <rect x="540" y="410" width="192" height="64" rx="16" fill="rgba(255,255,255,0.14)"></rect><text x="636" y="440" font-family="'Inter', 'Segoe UI', system-ui, -apple-system, sans-serif" font-size="22" fill="#ffffff" text-anchor="middle" font-weight="800">28%</text><text x="636" y="460" font-family="'Inter', 'Segoe UI', system-ui, -apple-system, sans-serif" font-size="12.5" fill="rgba(255,255,255,0.75)" text-anchor="middle">front ratio</text><rect x="744" y="410" width="192" height="64" rx="16" fill="rgba(255,255,255,0.14)"></rect><text x="840" y="440" font-family="'Inter', 'Segoe UI', system-ui, -apple-system, sans-serif" font-size="22" fill="#ffffff" text-anchor="middle" font-weight="800">36%</text><text x="840" y="460" font-family="'Inter', 'Segoe UI', system-ui, -apple-system, sans-serif" font-size="12.5" fill="rgba(255,255,255,0.75)" text-anchor="middle">back ratio</text><rect x="948" y="410" width="192" height="64" rx="16" fill="rgba(255,255,255,0.14)"></rect><text x="1044" y="440" font-family="'Inter', 'Segoe UI', system-ui, -apple-system, sans-serif" font-size="22" fill="#ffffff" text-anchor="middle" font-weight="800">20%</text><text x="1044" y="460" font-family="'Inter', 'Segoe UI', system-ui, -apple-system, sans-serif" font-size="12.5" fill="rgba(255,255,255,0.75)" text-anchor="middle">down</text>
  </g>

  <g font-family="'Segoe UI', 'Helvetica Neue', Arial, sans-serif">
    <rect x="540" y="502" width="170" height="42" rx="21" fill="#ffffff" opacity="0.16"/>
    <text x="625" y="529" text-anchor="middle" font-size="15" font-weight="700" fill="#ffffff" letter-spacing="0.5">FREE TOOL · NO SIGNUP</text>
  </g>

  <text x="600" y="614" text-anchor="middle" font-family="'Segoe UI', 'Helvetica Neue', Arial, sans-serif" font-size="15" fill="#ffffff" opacity="0.55">EveryCentCalc.com — free online financial calculators</text>
</svg>